<?xml version="1.0" encoding="utf-8"?>
<!-- Generator: Adobe Illustrator 18.0.0, SVG Export Plug-In . SVG Version: 6.00 Build 0)  -->
<!DOCTYPE svg PUBLIC "-//W3C//DTD SVG 1.1//EN" "http://www.w3.org/Graphics/SVG/1.1/DTD/svg11.dtd">
<svg version="1.1" id="Layer_1" xmlns="http://www.w3.org/2000/svg" xmlns:xlink="http://www.w3.org/1999/xlink" x="0px" y="0px"
	 viewBox="0 0 595.3 841.9" enable-background="new 0 0 595.3 841.9" xml:space="preserve">
<g>
	<g>
		<g>
			<g>
				<circle fill="#FFFFFF" cx="296.1" cy="420.9" r="270.7"/>
			</g>
			<g>
				<g>
					<defs>
						<path id="SVGID_1_" d="M297.6,123.3C133.3,123.3,0,256.6,0,420.9s133.3,297.6,297.6,297.6s297.6-133.3,297.6-297.6
							S461.9,123.3,297.6,123.3z M297.6,689.2c-148.4,0-268.3-119.8-268.3-268.3s119.8-268.3,268.3-268.3s268.3,119.8,268.3,268.3
							S446.1,689.2,297.6,689.2z"/>
					</defs>
					<clipPath id="SVGID_2_">
						<use xlink:href="#SVGID_1_"  overflow="visible"/>
					</clipPath>
					<g clip-path="url(#SVGID_2_)">
						<circle fill="#1EBAED" cx="502.4" cy="186" r="157.2"/>
						<circle fill="#D52027" cx="608.8" cy="434.4" r="157.2"/>
						<circle fill="#214183" cx="479.4" cy="674.9" r="157.2"/>
						<circle fill="#F2D011" cx="211.1" cy="721.8" r="157.2"/>
						<circle fill="#E90989" cx="7.1" cy="543.2" r="157.2"/>
						<circle fill="#5BB947" cx="19.8" cy="270.9" r="157.2"/>
						<circle fill="#452974" cx="240.5" cy="111.4" r="157.2"/>
						<path fill="#1EBAED" d="M345.3,186c0,12.7,1.6,25.4,4.8,38.1c43.7-9.5,54.8-69.8,54.8-113.5c0-12.7,3.2-29.4-11.1-37.3
							C363.5,101.9,345.3,141.6,345.3,186z"/>
					</g>
				</g>
			</g>
		</g>
	</g>
	<g>
		<g>
			<g>
				<path fill="#29ABE2" d="M500.5,462.9c0,10.2-8.4,18.6-18.6,18.6h-84.1c-10.2,0-18.6-8.4-18.6-18.6v-84.1
					c0-10.2,8.4-18.6,18.6-18.6h84.1c10.2,0,18.6,8.4,18.6,18.6V462.9z"/>
				<path fill="#FFFFFF" d="M440.2,378.9c4.8,0,9.2,0.5,13.3,1.4c4.1,0.9,7.7,2.3,10.7,4.1c3.1,1.8,5.5,4.1,7.2,6.8
					c1.7,2.7,2.6,5.9,2.6,9.5v37.1c0,3.1-0.4,5.9-1.3,8.2c-0.9,2.4-2.1,4.4-3.5,6.2c-1.4,1.7-3.1,3.2-4.9,4.4
					c-1.8,1.2-3.7,2.2-5.6,3c-4.5,1.8-9.6,2.9-15.3,3.1h-26c-3,0-5.3-0.4-6.9-1.2c-1.6-0.8-2.8-1.8-3.5-3.1
					c-0.7-1.3-1.2-2.8-1.3-4.4c-0.1-1.6-0.2-3.3-0.2-5.1v-56.4c0-1.7,0.1-3.4,0.2-5c0.1-1.6,0.6-3.1,1.3-4.4
					c0.7-1.3,1.9-2.3,3.5-3.1c1.6-0.8,3.9-1.2,6.9-1.2H440.2z M429.4,392.9v55.5h10.2c2.2-0.1,4.2-0.5,6-1.2
					c0.7-0.3,1.5-0.7,2.2-1.2c0.7-0.5,1.4-1,2-1.7c0.6-0.7,1-1.4,1.4-2.4c0.3-0.9,0.5-2,0.5-3.2v-35.3c0-1.3-0.2-2.5-0.5-3.5
					c-0.3-1-0.8-1.9-1.4-2.7c-0.6-0.8-1.2-1.4-2-1.9c-0.7-0.5-1.5-0.9-2.2-1.2c-1.8-0.8-3.8-1.2-6-1.3H429.4z"/>
			</g>
			<g>
				<path fill="#FF0013" d="M362,462.1c0,10.2-8.4,18.6-18.6,18.6h-84.1c-10.2,0-18.6-8.4-18.6-18.6v-84.1
					c0-10.2,8.4-18.6,18.6-18.6h84.1c10.2,0,18.6,8.4,18.6,18.6V462.1z"/>
				<path fill="#FFFFFF" d="M338.1,431.6c0.1,2.7,0.2,5.5,0.4,8.3c0.1,2.8,0.2,5.6,0.2,8.2v1.8c0,1.5-0.1,3-0.2,4.4
					c-0.1,1.4-0.5,2.7-1.2,3.8c-0.7,1.1-1.7,2-3.2,2.7c-1.5,0.7-3.5,1-6.2,1c-2.7,0-4.8-0.3-6.3-1c-1.5-0.7-2.5-1.6-3.3-2.7
					c-0.7-1.1-1.1-2.4-1.3-3.8c-0.1-1.4-0.2-2.9-0.2-4.4v-8.4h-31.3v8.4c0,1.5-0.1,3-0.2,4.4c-0.1,1.4-0.5,2.7-1.3,3.8
					c-0.7,1.1-1.8,2-3.2,2.7c-1.5,0.7-3.5,1-6.3,1c-2.7,0-4.8-0.3-6.3-1c-1.5-0.7-2.5-1.6-3.2-2.7c-0.7-1.1-1.1-2.4-1.2-3.8
					c-0.1-1.4-0.2-2.9-0.2-4.4v-1.8c0-1.2,0-2.6,0-3.9c0-1.4,0.1-2.8,0.1-4.3c0.1-1.4,0.1-2.9,0.2-4.3c0.1-1.4,0.1-2.8,0.2-4
					c2.6-6.9,5.4-14,8.2-21.1c2.9-7.1,5.6-14.2,8.2-21.2c0.5-1.5,1.2-2.9,1.9-4.3c0.7-1.4,1.7-2.6,2.9-3.6c1.2-1,2.7-1.8,4.6-2.5
					c1.9-0.6,4.3-0.9,7.2-0.9h7.8c2.9,0,5.3,0.3,7.2,0.9c1.9,0.6,3.5,1.4,4.7,2.5c1.2,1,2.2,2.2,2.9,3.6c0.7,1.4,1.3,2.8,1.9,4.3
					L338.1,431.6z M288.9,425.7h24.9l-11.6-32.1h-1.7L288.9,425.7z"/>
			</g>
		</g>
		<g>
			<path fill="#39B54A" d="M223.4,462.2c0,10.2-8.4,18.6-18.6,18.6h-84.1c-10.2,0-18.6-8.4-18.6-18.6v-84.1
				c0-10.2,8.4-18.6,18.6-18.6h84.1c10.2,0,18.6,8.4,18.6,18.6V462.2z"/>
		</g>
		<path fill="#FFFFFF" d="M198.9,409.2c-2-1.2-3.4-3.3-3.4-5.7c0-1.5,0.5-2.8,1.4-3.9c0.6-0.8,1-1.8,1-2.9c0-1.3-0.5-2.4-1.3-3.3
			c-1-1.2-8.6-10.2-28.3-21.3c-1.1-0.6-2.4-1-3.8-1c-1.6,0-3,0.5-4.2,1.3l-11.9,10.3c-1.1,0.7-2.5,3.3-3.8,3.3h-8.9
			c-3,0-6.6,0.5-6.6,3.3c0,0,0,59.3,0,59.7v4.6c0,3.8,4.4,8.5,8.8,8.5h5.8c4.1,0,7.7-3.9,7.7-8c0-1.3-0.3-3.7-0.3-5.1v-9.8
			c0,0,7.1,2.7,14.8,2.8c17.4,0.1,32.1-11.7,35.4-27.3c0-0.3,0.1-0.7,0.1-1.1C201.3,411.7,200.5,410.1,198.9,409.2z"/>
	</g>
</g>
</svg>
